<svg width="425" height="283" viewBox="0 0 425 283" fill="none" xmlns="http://www.w3.org/2000/svg">
<g clip-path="url(#clip0_4_231)">
<path d="M0 153.292L10.1528 160.272C20.3056 167.3 40.6111 181.261 60.8222 184.186C81.0806 187.11 101.197 178.903 121.456 170.649C141.667 162.395 161.972 154.093 182.183 152.584C202.442 151.075 222.558 156.452 242.817 161.216C263.028 166.027 283.333 170.272 303.544 172.866C323.803 175.46 343.919 176.403 364.178 172.724C384.389 168.998 404.694 160.697 414.847 156.499L425 152.348V283.472H414.847C404.694 283.472 384.389 283.472 364.178 283.472C343.919 283.472 323.803 283.472 303.544 283.472C283.333 283.472 263.028 283.472 242.817 283.472C222.558 283.472 202.442 283.472 182.183 283.472C161.972 283.472 141.667 283.472 121.456 283.472C101.197 283.472 81.0806 283.472 60.8222 283.472C40.6111 283.472 20.3056 283.472 10.1528 283.472H0V153.292Z" fill="#171717"/>
<path d="M0 196.685L10.1528 198.572C20.3056 200.458 40.6111 204.232 60.8222 205.882C81.0806 207.533 101.197 207.062 121.456 207.297C141.667 207.533 161.972 208.477 182.183 205.033C202.442 201.543 222.558 193.713 242.817 188.431C263.028 183.148 283.333 180.507 303.544 181.592C323.803 182.676 343.919 187.582 364.178 185.837C384.389 184.091 404.694 175.79 414.847 171.592L425 167.442V283.472H414.847C404.694 283.472 384.389 283.472 364.178 283.472C343.919 283.472 323.803 283.472 303.544 283.472C283.333 283.472 263.028 283.472 242.817 283.472C222.558 283.472 202.442 283.472 182.183 283.472C161.972 283.472 141.667 283.472 121.456 283.472C101.197 283.472 81.0806 283.472 60.8222 283.472C40.6111 283.472 20.3056 283.472 10.1528 283.472H0V196.685Z" fill="#462122"/>
<path d="M0 196.685L10.1528 199.185C20.3056 201.732 40.6111 206.732 60.8222 210.694C81.0806 214.608 101.197 217.438 121.456 216.636C141.667 215.882 161.972 211.448 182.183 212.486C202.442 213.523 222.558 219.938 242.817 222.627C263.028 225.315 283.333 224.183 303.544 221.353C323.803 218.523 343.919 213.995 364.178 214.939C384.389 215.882 404.694 222.297 414.847 225.551L425 228.758V283.472H414.847C404.694 283.472 384.389 283.472 364.178 283.472C343.919 283.472 323.803 283.472 303.544 283.472C283.333 283.472 263.028 283.472 242.817 283.472C222.558 283.472 202.442 283.472 182.183 283.472C161.972 283.472 141.667 283.472 121.456 283.472C101.197 283.472 81.0806 283.472 60.8222 283.472C40.6111 283.472 20.3056 283.472 10.1528 283.472H0V196.685Z" fill="#77272E"/>
<path d="M0 243.38L10.1528 244.559C20.3056 245.738 40.6111 248.097 60.8222 249.276C81.0806 250.455 101.197 250.455 121.456 245.738C141.667 241.022 161.972 231.588 182.183 230.504C202.442 229.372 222.558 236.635 242.817 238.569C263.028 240.55 283.333 237.248 303.544 234.796C323.803 232.39 343.919 230.787 364.178 232.154C384.389 233.475 404.694 237.72 414.847 239.843L425 241.965V283.472H414.847C404.694 283.472 384.389 283.472 364.178 283.472C343.919 283.472 323.803 283.472 303.544 283.472C283.333 283.472 263.028 283.472 242.817 283.472C222.558 283.472 202.442 283.472 182.183 283.472C161.972 283.472 141.667 283.472 121.456 283.472C101.197 283.472 81.0806 283.472 60.8222 283.472C40.6111 283.472 20.3056 283.472 10.1528 283.472H0V243.38Z" fill="#AB273B"/>
<path d="M0 257.53L10.1528 258.237C20.3056 258.945 40.6111 260.36 60.8222 258.803C81.0806 257.2 101.197 252.672 121.456 249.417C141.667 246.21 161.972 244.323 182.183 245.833C202.442 247.295 222.558 252.2 242.817 254.087C263.028 255.973 283.333 254.841 303.544 253.615C323.803 252.342 343.919 250.927 364.178 250.125C384.389 249.37 404.694 249.181 414.847 249.134L425 249.04V283.472H414.847C404.694 283.472 384.389 283.472 364.178 283.472C343.919 283.472 323.803 283.472 303.544 283.472C283.333 283.472 263.028 283.472 242.817 283.472C222.558 283.472 202.442 283.472 182.183 283.472C161.972 283.472 141.667 283.472 121.456 283.472C101.197 283.472 81.0806 283.472 60.8222 283.472C40.6111 283.472 20.3056 283.472 10.1528 283.472H0V257.53Z" fill="#E11D48"/>
</g>
<defs>
<clipPath id="clip0_4_231">
<rect width="425" height="283" fill="white"/>
</clipPath>
</defs>
</svg>
