<svg width="940" height="312" viewBox="0 0 940 312" fill="none" xmlns="http://www.w3.org/2000/svg">
<g clip-path="url(#clip0_4_244)">
<path d="M0 196.95L22.325 191.295C44.7479 185.543 89.3979 174.233 134.146 168.48C178.894 162.825 223.544 162.825 268.292 163.605C313.04 164.483 357.69 166.043 402.633 166.238C447.479 166.433 492.521 165.068 537.367 165.068C582.31 165.068 626.96 166.433 671.708 172.088C716.456 177.743 761.106 187.883 805.854 187.883C850.602 187.883 895.252 177.743 917.675 172.77L940 167.7V312.975H917.675C895.252 312.975 850.602 312.975 805.854 312.975C761.106 312.975 716.456 312.975 671.708 312.975C626.96 312.975 582.31 312.975 537.367 312.975C492.521 312.975 447.479 312.975 402.633 312.975C357.69 312.975 313.04 312.975 268.292 312.975C223.544 312.975 178.894 312.975 134.146 312.975C89.3979 312.975 44.7479 312.975 22.325 312.975H0V196.95Z" fill="#171717"/>
<path d="M0 185.25L22.325 187.98C44.7479 190.808 89.3979 196.268 134.146 202.313C178.894 208.358 223.544 214.793 268.292 216.45C313.04 218.108 357.69 214.793 402.633 210.308C447.479 205.725 492.521 199.875 537.367 195.195C582.31 190.418 626.96 186.908 671.708 188.468C716.456 190.125 761.106 196.95 805.854 196.95C850.602 196.95 895.252 190.125 917.675 186.713L940 183.3V312.975H917.675C895.252 312.975 850.602 312.975 805.854 312.975C761.106 312.975 716.456 312.975 671.708 312.975C626.96 312.975 582.31 312.975 537.367 312.975C492.521 312.975 447.479 312.975 402.633 312.975C357.69 312.975 313.04 312.975 268.292 312.975C223.544 312.975 178.894 312.975 134.146 312.975C89.3979 312.975 44.7479 312.975 22.325 312.975H0V185.25Z" fill="#462122"/>
<path d="M0 239.85L22.325 235.755C44.7479 231.757 89.3979 223.567 134.146 226.2C178.894 228.832 223.544 242.092 268.292 248.43C313.04 254.767 357.69 254.182 402.633 252.33C447.479 250.575 492.521 247.65 537.367 240.825C582.31 234 626.96 223.275 671.708 219.082C716.456 214.792 761.106 217.132 805.854 219.375C850.602 221.617 895.252 223.957 917.675 225.03L940 226.2V312.975H917.675C895.252 312.975 850.602 312.975 805.854 312.975C761.106 312.975 716.456 312.975 671.708 312.975C626.96 312.975 582.31 312.975 537.367 312.975C492.521 312.975 447.479 312.975 402.633 312.975C357.69 312.975 313.04 312.975 268.292 312.975C223.544 312.975 178.894 312.975 134.146 312.975C89.3979 312.975 44.7479 312.975 22.325 312.975H0V239.85Z" fill="#77272E"/>
<path d="M0 240.825L22.325 245.895C44.7479 250.867 89.3979 261.007 134.146 260.617C178.894 260.325 223.544 249.6 268.292 248.332C313.04 246.967 357.69 255.157 402.633 259.35C447.479 263.542 492.521 263.932 537.367 264.712C582.31 265.492 626.96 266.857 671.708 262.567C716.456 258.375 761.106 248.625 805.854 249.892C850.602 251.257 895.252 263.542 917.675 269.782L940 275.925V312.975H917.675C895.252 312.975 850.602 312.975 805.854 312.975C761.106 312.975 716.456 312.975 671.708 312.975C626.96 312.975 582.31 312.975 537.367 312.975C492.521 312.975 447.479 312.975 402.633 312.975C357.69 312.975 313.04 312.975 268.292 312.975C223.544 312.975 178.894 312.975 134.146 312.975C89.3979 312.975 44.7479 312.975 22.325 312.975H0V240.825Z" fill="#AB273B"/>
<path d="M0 273.975L22.325 272.513C44.7479 271.05 89.3979 268.125 134.146 268.905C178.894 269.783 223.544 274.268 268.292 275.925C313.04 277.583 357.69 276.218 402.633 274.95C447.479 273.683 492.521 272.318 537.367 270.563C582.31 268.808 626.96 266.468 671.708 269.783C716.456 273 761.106 281.775 805.854 285.383C850.602 288.893 895.252 287.333 917.675 286.455L940 285.675V312.975H917.675C895.252 312.975 850.602 312.975 805.854 312.975C761.106 312.975 716.456 312.975 671.708 312.975C626.96 312.975 582.31 312.975 537.367 312.975C492.521 312.975 447.479 312.975 402.633 312.975C357.69 312.975 313.04 312.975 268.292 312.975C223.544 312.975 178.894 312.975 134.146 312.975C89.3979 312.975 44.7479 312.975 22.325 312.975H0V273.975Z" fill="#E11D48"/>
</g>
<defs>
<clipPath id="clip0_4_244">
<rect width="940" height="312" fill="white"/>
</clipPath>
</defs>
</svg>
